<?xml version="1.0" encoding="UTF-8"?>
<svg version="1.1" xmlns="http://www.w3.org/2000/svg" width="160" height="156">
<path d="M0 0 C16.73882677 13.35624068 26.75332959 30.38838873 29.4609375 51.61328125 C31.49944859 73.42534995 25.44411968 91.89026225 11.76953125 108.75 C-0.93659984 123.44624801 -18.56592518 133.16958132 -38 135 C-60.30428529 136.42592073 -80.06398621 130.38995072 -97.1875 115.75 C-112.66842725 101.22438313 -120.32364132 82.25811847 -120.99609375 61.3046875 C-121.24338042 41.22501026 -113.87916897 22.67060969 -100.109375 8.046875 C-72.43416451 -18.80832925 -31.67630237 -23.11765386 0 0 Z " fill="#66E6DC" transform="translate(123,18)"/>
<path d="M0 0 C2.52947236 0.11053157 4.04001762 0.23875881 6.3125 1.375 C5.66545334 4.82025323 4.84833825 8.15314994 3.859375 11.515625 C3.57231689 12.49571533 3.28525879 13.47580566 2.98950195 14.4855957 C2.68359131 15.52159912 2.37768066 16.55760254 2.0625 17.625 C1.74821045 18.69387451 1.4339209 19.76274902 1.11010742 20.86401367 C0.4749617 23.02396246 -0.16085472 25.18371415 -0.79736328 27.34326172 C-1.58008213 30.00914288 -2.35366126 32.67734379 -3.12109375 35.34765625 C-3.53867753 36.79438201 -3.95662492 38.24100288 -4.375 39.6875 C-4.6685437 40.70638306 -4.6685437 40.70638306 -4.96801758 41.74584961 C-6.41655932 46.68286599 -8.17002101 51.44277078 -10.18359375 56.17578125 C-10.89015702 58.37149222 -10.89015702 58.37149222 -9.984375 60.42578125 C-5.71390979 66.84434191 0.31734615 73.87742307 7.3125 77.375 C10.40100226 77.36622585 13.47668587 77.24329048 16.5625 77.1171875 C17.47 77.20226562 18.3775 77.28734375 19.3125 77.375 C21.3125 80.375 21.3125 80.375 21.1875 83.4375 C20.3125 86.375 20.3125 86.375 18.515625 87.53125 C13.87503537 89.30849709 9.41531218 89.12188298 4.75 87.46484375 C-5.13501492 82.77850284 -11.1362696 75.98518853 -17.6875 67.375 C-18.28175781 67.7359375 -18.87601563 68.096875 -19.48828125 68.46875 C-25.92500669 72.07251541 -31.315116 73.63652254 -38.6875 72.375 C-42.01804982 70.73894044 -43.88682741 69.46682626 -46.0625 66.5 C-46.93901896 63.51983554 -47.12172592 61.47661374 -46.6875 58.375 C-44.10834265 54.6495505 -41.90863505 52.04796362 -37.6875 50.375 C-35.35546875 50.109375 -35.35546875 50.109375 -32.875 50.125 C-32.06417969 50.11984375 -31.25335938 50.1146875 -30.41796875 50.109375 C-27.02049595 50.43988738 -23.94125146 51.36645711 -20.6875 52.375 C-17.48871107 42.55878519 -14.41261583 32.72690487 -11.75 22.75 C-11.41512573 21.51576294 -11.41512573 21.51576294 -11.07348633 20.2565918 C-10.56349024 18.3079964 -10.11831805 16.34261679 -9.6875 14.375 C-10.1825 13.88 -10.1825 13.88 -10.6875 13.375 C-12.3271875 14.426875 -12.3271875 14.426875 -14 15.5 C-16.50044425 17.09526551 -18.9587939 18.50596947 -21.6328125 19.796875 C-26.99774813 22.08126432 -26.99774813 22.08126432 -30.609375 26.3125 C-30.96539119 28.44158245 -30.96539119 28.44158245 -30.6875 31.375 C-29.3675 32.365 -28.0475 33.355 -26.6875 34.375 C-27.0175 36.025 -27.3475 37.675 -27.6875 39.375 C-35.45535714 40.04464286 -35.45535714 40.04464286 -39.125 37 C-42.25568734 33.79295443 -42.59576694 33.14817863 -43.125 28.6875 C-43.00274111 24.46192713 -41.88917668 22.06797143 -38.97265625 19.02734375 C-34.91906974 16.09628889 -30.25247449 14.55741549 -25.59375 12.84375 C-18.89489373 10.37783244 -11.92700529 7.77074985 -7 2.5 C-4.31105417 0.0290768 -3.52937355 0.04467561 0 0 Z " fill="#030A0A" transform="translate(96.6875,38.625)"/>
<path d="M0 0 C-1.02480469 0.36351562 -2.04960938 0.72703125 -3.10546875 1.1015625 C-4.46649859 1.60842879 -5.82715642 2.11629477 -7.1875 2.625 C-8.19780273 2.97884766 -8.19780273 2.97884766 -9.22851562 3.33984375 C-14.32750798 5.27994816 -16.94016437 7.45112222 -20 12 C-21.13270146 15.89058328 -20.36685829 19.23293266 -18.625 22.875 C-14.80205675 25.96976358 -10.7947428 26.38693174 -6 27 C-5.83316274 24.57570994 -5.83316274 24.57570994 -6 22 C-7.9004467 20.15684329 -7.9004467 20.15684329 -10 19 C-10 15.8125 -10 15.8125 -9 12 C-6.63825615 9.78981191 -3.86670516 8.46288282 -1 7 C0.93868258 5.93965932 2.87615524 4.87710389 4.8125 3.8125 C5.72644531 3.32394531 6.64039062 2.83539063 7.58203125 2.33203125 C10.1435171 0.9652609 10.1435171 0.9652609 13 -1 C12.34484195 2.00280772 11.6743837 5.00146907 11 8 C10.72027344 9.27230469 10.44054687 10.54460938 10.15234375 11.85546875 C8.01894699 21.3826471 5.73560067 30.9532392 2 40 C1.01 40.495 1.01 40.495 0 41 C-0.825 40.690625 -1.65 40.38125 -2.5 40.0625 C-7.92774445 38.41479186 -13.58927239 38.19642413 -19 40 C-18.67 38.68 -18.34 37.36 -18 36 C-11.2718373 35.77737697 -5.46008837 36.04978464 1 38 C0.34 37.01 -0.32 36.02 -1 35 C-1 33.68 -1 32.36 -1 31 C-2.65 30.67 -4.3 30.34 -6 30 C-6 29.34 -6 28.68 -6 28 C-6.825 28.20625 -7.65 28.4125 -8.5 28.625 C-12.72791222 29.0779906 -16.25263191 29.20871365 -20 27 C-23.18951366 22.05148545 -24.1769098 14.74608904 -23 9 C-21.6015625 7.2421875 -21.6015625 7.2421875 -20 6 C-19.34 6 -18.68 6 -18 6 C-18 5.34 -18 4.68 -18 4 C-15.75438718 3.13237686 -13.50473745 2.2807897 -11.25 1.4375 C-10.61578125 1.19064453 -9.9815625 0.94378906 -9.328125 0.68945312 C-5.88990821 -0.58197079 -3.47831118 -1.46686355 0 0 Z " fill="#68E5DB" transform="translate(75,51)"/>
<path d="M0 0 C1.66015625 1.46484375 3.3203125 2.9296875 4.98046875 4.39453125 C9.53274435 8.01345827 12.29713197 9.35122691 18.1875 9 C21.35546875 8.8125 21.35546875 8.8125 24 9 C26 12 26 12 25.875 15.0625 C25 18 25 18 23.203125 19.15625 C18.56253537 20.93349709 14.10281218 20.74688298 9.4375 19.08984375 C2.15780992 15.63864921 -4.31685038 11.36629925 -8 4 C-4.88801935 5.49836105 -1.9465385 7.19933758 1 9 C0.67 6.03 0.34 3.06 0 0 Z " fill="#041514" transform="translate(92,107)"/>
<path d="M0 0 C0.66 0 1.32 0 2 0 C0.79618552 2.49361571 -0.45428722 4.68143083 -2 7 C-2.39013716 8.9896995 -2.73202649 10.99019869 -3 13 C-1.16299211 13.77242269 -1.16299211 13.77242269 1 14 C3.94194298 11.96327025 4.79460415 9.27178874 6 6 C7 5 7 5 10.8125 4.8125 C14.03540201 4.8414309 16.25544723 5.17029815 19 7 C18.75 9.375 18.75 9.375 18 12 C15.21731431 13.73917855 12.44292891 14.46763228 9.25 15.125 C8.45078125 15.29257813 7.6515625 15.46015625 6.828125 15.6328125 C6.22484375 15.75398438 5.6215625 15.87515625 5 16 C5 16.66 5 17.32 5 18 C9.0411204 18.24741553 12.09854855 18.15033437 15.75 16.4375 C19 15 19 15 22 16 C15.64856907 19.83482622 10.42054622 21.13290782 3 20 C-0.33054982 18.36394044 -2.19932741 17.09182626 -4.375 14.125 C-5.25151896 11.14483554 -5.43422592 9.10161374 -5 6 C-3.54349058 3.61760542 -2.00576992 2.00576992 0 0 Z " fill="#020A0B" transform="translate(55,91)"/>
<path d="M0 0 C1.39205237 4.1761571 0.07477747 7.39628621 -1.0625 11.5 C-1.28784424 12.33063965 -1.51318848 13.1612793 -1.74536133 14.01708984 C-3.46048205 20.24910476 -5.28411409 26.44801867 -7.1875 32.625 C-7.43701416 33.44806641 -7.68652832 34.27113281 -7.94360352 35.11914062 C-8.56868376 37.09950944 -9.27687592 39.0532906 -10 41 C-10.99 41.495 -10.99 41.495 -12 42 C-12.825 41.690625 -13.65 41.38125 -14.5 41.0625 C-19.92774445 39.41479186 -25.58927239 39.19642413 -31 41 C-30.67 39.68 -30.34 38.36 -30 37 C-23.2718373 36.77737697 -17.46008837 37.04978464 -11 39 C-10.67 36.36 -10.34 33.72 -10 31 C-9.34 31 -8.68 31 -8 31 C-7.95101562 29.92878906 -7.90203125 28.85757813 -7.8515625 27.75390625 C-7.77654706 26.35674361 -7.7009987 24.9596095 -7.625 23.5625 C-7.5940625 22.85544922 -7.563125 22.14839844 -7.53125 21.41992188 C-7.42719371 19.60760812 -7.22080108 17.80182012 -7 16 C-6.34 15.67 -5.68 15.34 -5 15 C-5.33 13.02 -5.66 11.04 -6 9 C-6.90492187 9.30744141 -6.90492187 9.30744141 -7.828125 9.62109375 C-8.62734375 9.89050781 -9.4265625 10.15992188 -10.25 10.4375 C-11.03890625 10.70433594 -11.8278125 10.97117187 -12.640625 11.24609375 C-14.7352255 11.9153949 -16.86671967 12.46667992 -19 13 C-18.67 15.97 -18.34 18.94 -18 22 C-19.32 21.34 -20.64 20.68 -22 20 C-22 16.8125 -22 16.8125 -21 13 C-18.63837159 10.78991993 -15.86758664 9.46101724 -13 8 C-11.03983684 6.94087958 -9.08153971 5.87829926 -7.125 4.8125 C-6.19945313 4.32394531 -5.27390625 3.83539063 -4.3203125 3.33203125 C-1.90648052 2.08061055 -1.90648052 2.08061055 0 0 Z " fill="#76D6CD" transform="translate(87,50)"/>
<path d="M0 0 C-11.65974204 16.00291242 -28.06164717 27.38530496 -47.625 31.25 C-57.1812222 32.6634203 -67.51349694 32.85864088 -77 31 C-77 30.67 -77 30.34 -77 30 C-75.92069214 29.97812622 -75.92069214 29.97812622 -74.81958008 29.95581055 C-57.33269179 29.78089389 -57.33269179 29.78089389 -40.22265625 26.62109375 C-38 26 -38 26 -35 26 C-35 25.34 -35 24.68 -35 24 C-31.91190305 22.23537317 -30.76687864 22 -27 22 C-27 21.01 -27 20.02 -27 19 C-25.88625 18.525625 -24.7725 18.05125 -23.625 17.5625 C-18.58901678 15.46728749 -18.58901678 15.46728749 -16 11 C-14.68 11 -13.36 11 -12 11 C-12 10.01 -12 9.02 -12 8 C-10.68 8 -9.36 8 -8 8 C-8.495 6.515 -8.495 6.515 -9 5 C-8.3125 2.375 -8.3125 2.375 -7 0 C-4.07083439 -1.32284898 -3.12177395 -1.04059132 0 0 Z " fill="#92E1DB" transform="translate(139,121)"/>
<path d="M0 0 C-0.99 0.66 -1.98 1.32 -3 2 C-3.99 1.401875 -4.98 0.80375 -6 0.1875 C-8.68802114 -1.3586585 -11.33403355 -2.57201212 -14.25 -3.625 C-18 -5 -18 -5 -21 -7 C-32.14574865 -9.49393823 -45.15426999 -10.90985571 -56 -7 C-58.265625 -6.62109375 -58.265625 -6.62109375 -60.25 -6.4375 C-63.80735876 -6.23821809 -63.80735876 -6.23821809 -66 -5 C-66.99 -5.33 -67.98 -5.66 -69 -6 C-69 -5.34 -69 -4.68 -69 -4 C-70.65 -3.34 -72.3 -2.68 -74 -2 C-74.66 -2.66 -75.32 -3.32 -76 -4 C-50.60014236 -15.7695311 -24.04036413 -14.75204163 0 0 Z " fill="#A4E6E1" transform="translate(119,15)"/>
<path d="M0 0 C1.125 1.75 1.125 1.75 2 4 C1.35191436 5.34246312 0.68177416 6.67432801 0 8 C-0.42663286 9.73813388 -0.80076859 11.48988665 -1.125 13.25 C-1.37636719 14.58804688 -1.37636719 14.58804688 -1.6328125 15.953125 C-1.75398438 16.62859375 -1.87515625 17.3040625 -2 18 C-0.35 18 1.3 18 3 18 C2.67 18.99 2.34 19.98 2 21 C-5.15025907 21.47668394 -5.15025907 21.47668394 -8.5625 19.5625 C-10.77635091 15.61607012 -10.17016854 12.273337 -9 8 C-4.63636364 0 -4.63636364 0 0 0 Z " fill="#030505" transform="translate(65,56)"/>
<path d="M0 0 C0.66 0.66 1.32 1.32 2 2 C2.33 2 2.66 2 3 2 C4.54180264 2.16540411 6.08344126 2.33233802 7.625 2.5 C11.78390432 2.92425604 15.82300094 3.09080433 20 3 C19.6875 5.875 19.6875 5.875 19 9 C15.15669804 11.56220131 13.76809323 10.91906612 9.3125 10.125 C8.13300781 9.92132813 6.95351562 9.71765625 5.73828125 9.5078125 C4.38283203 9.25644531 4.38283203 9.25644531 3 9 C2.67 8.01 2.34 7.02 2 6 C1.01 6 0.02 6 -1 6 C-0.67 4.02 -0.34 2.04 0 0 Z " fill="#020303" transform="translate(96,115)"/>
<path d="M0 0 C-1.02480469 0.36351562 -2.04960938 0.72703125 -3.10546875 1.1015625 C-4.46649859 1.60842879 -5.82715642 2.11629477 -7.1875 2.625 C-8.19780273 2.97884766 -8.19780273 2.97884766 -9.22851562 3.33984375 C-14.32750798 5.27994816 -16.94016437 7.45112222 -20 12 C-21.13270146 15.89058328 -20.36685829 19.23293266 -18.625 22.875 C-14.80205675 25.96976358 -10.7947428 26.38693174 -6 27 C-5.67 26.34 -5.34 25.68 -5 25 C-5 25.99 -5 26.98 -5 28 C-10.12903726 29.06854943 -15.30671029 29.82231611 -20 27 C-23.18431003 22.04309072 -24.1780839 14.75182138 -23 9 C-21.6015625 7.2421875 -21.6015625 7.2421875 -20 6 C-19.34 6 -18.68 6 -18 6 C-18 5.34 -18 4.68 -18 4 C-15.75438718 3.13237686 -13.50473745 2.2807897 -11.25 1.4375 C-10.61578125 1.19064453 -9.9815625 0.94378906 -9.328125 0.68945312 C-5.88990821 -0.58197079 -3.47831118 -1.46686355 0 0 Z " fill="#72CCC4" transform="translate(75,51)"/>
<path d="M0 0 C1.97265625 0.265625 1.97265625 0.265625 4.97265625 2.265625 C3.60282122 5.42678276 2.98359245 6.2583342 -0.02734375 8.265625 C-3.71484375 7.890625 -3.71484375 7.890625 -7.02734375 7.265625 C-7.65234375 4.890625 -7.65234375 4.890625 -8.02734375 2.265625 C-5.42029477 -0.34142398 -3.55396134 0.02657167 0 0 Z " fill="#73E1D9" transform="translate(68.02734375,95.734375)"/>
<path d="M0 0 C0 0.66 0 1.32 0 2 C-4.40420932 6.40420932 -8.86752173 8.77124976 -15 10 C-18.0625 9.6875 -18.0625 9.6875 -20 9 C-20 8.34 -20 7.68 -20 7 C-17.27387869 5.1825858 -16.05853447 4.67073129 -13 4.0625 C-9.73936044 3.3127909 -8.2228983 2.55633305 -6 0 C-2.52631579 -1.26315789 -2.52631579 -1.26315789 0 0 Z " fill="#020403" transform="translate(80,100)"/>
<path d="M0 0 C0.33 0 0.66 0 1 0 C3.2380967 14.24243352 3.51865823 27.07457526 -1 41 C-1.66 39.68 -2.32 38.36 -3 37 C-2.34 37 -1.68 37 -1 37 C-0.67 24.79 -0.34 12.58 0 0 Z " fill="#ACE9E3" transform="translate(150,61)"/>
<path d="M0 0 C1.82956257 3.65912514 -0.61041223 7.83684197 -1.8125 11.5625 C-2.08642578 12.45130859 -2.36035156 13.34011719 -2.64257812 14.25585938 C-2.91134766 15.10083984 -3.18011719 15.94582031 -3.45703125 16.81640625 C-3.70428955 17.59443604 -3.95154785 18.37246582 -4.20629883 19.17407227 C-5 21 -5 21 -7 22 C-7.825 21.690625 -8.65 21.38125 -9.5 21.0625 C-14.92774445 19.41479186 -20.58927239 19.19642413 -26 21 C-25.67 19.68 -25.34 18.36 -25 17 C-18.2718373 16.77737697 -12.46008837 17.04978464 -6 19 C-5.67 16.36 -5.34 13.72 -5 11 C-4.34 11 -3.68 11 -3 11 C-2.87625 9.741875 -2.7525 8.48375 -2.625 7.1875 C-2.30131941 3.89674737 -1.93395001 2.90092502 0 0 Z " fill="#71C4BE" transform="translate(82,70)"/>
<path d="M0 0 C0.33 0 0.66 0 1 0 C1.02689216 1.47906892 1.04634621 2.95827483 1.0625 4.4375 C1.07410156 5.26121094 1.08570313 6.08492187 1.09765625 6.93359375 C1 9 1 9 0 10 C-0.33230561 17.57461326 -0.1208576 25.10953839 0.77734375 32.63671875 C1.1651104 36.75248763 1.07907442 40.87055829 1 45 C-5.52102441 33.60884344 -3.65106154 15.77148615 -0.9375 3.375 C-0.628125 2.26125 -0.31875 1.1475 0 0 Z " fill="#AAE5E2" transform="translate(5,56)"/>
<path d="M0 0 C0.93423645 3.01031744 1.04449911 3.86650268 0 7 C-0.99 7.495 -0.99 7.495 -2 8 C-2.144375 8.78375 -2.28875 9.5675 -2.4375 10.375 C-3.08658822 13.40407836 -3.87311981 13.87830732 -6 16 C-7.19599068 18.03232242 -7.19599068 18.03232242 -8.1875 20.1875 C-8.53167969 20.90292969 -8.87585938 21.61835937 -9.23046875 22.35546875 C-9.48441406 22.89816406 -9.73835937 23.44085938 -10 24 C-10.66 24 -11.32 24 -12 24 C-11.37331982 19.58817151 -9.69016941 15.92976639 -7.6875 12 C-7.39166016 11.39671875 -7.09582031 10.7934375 -6.79101562 10.171875 C-4.89557244 6.40555161 -2.7430387 3.19718418 0 0 Z " fill="#87DFD6" transform="translate(18,32)"/>
<path d="M0 0 C0.99 0.33 1.98 0.66 3 1 C2.34 1.86625 1.68 2.7325 1 3.625 C-1.16273844 7.27462112 -1.54026085 8.85800012 -1 13 C0.24993987 16.8634505 2.79253794 18.6366069 6 21 C2.7 21 -0.6 21 -4 21 C-4.0809313 18.39521117 -4.14045434 15.79293347 -4.1875 13.1875 C-4.22520508 12.08051758 -4.22520508 12.08051758 -4.26367188 10.95117188 C-4.33847525 5.44065646 -4.33847525 5.44065646 -2.55078125 3.11328125 C-2.03902344 2.74589844 -1.52726562 2.37851563 -1 2 C-0.67 1.34 -0.34 0.68 0 0 Z " fill="#70DCD3" transform="translate(52,90)"/>
<path d="M0 0 C-3.73257724 3.38373824 -6.64112964 4.70094487 -11.5625 5.6875 C-13.23505859 6.03361328 -13.23505859 6.03361328 -14.94140625 6.38671875 C-16.73624933 6.74660427 -18.53475594 7.09016753 -20.33984375 7.39453125 C-20.88769531 7.59433594 -21.43554688 7.79414063 -22 8 C-22.33 8.99 -22.66 9.98 -23 11 C-23.99 10.34 -24.98 9.68 -26 9 C-19.96857627 4.33741003 -15.66283829 2.24326471 -8 2 C-8 1.34 -8 0.68 -8 0 C-4.71303767 -0.79953138 -3.28976808 -1.09658936 0 0 Z " fill="#70E2D9" transform="translate(58,9)"/>
<path d="M0 0 C3.26008643 3.16952847 6.22237877 6.39937989 9 10 C7.68 10.33 6.36 10.66 5 11 C4.34 9.35 3.68 7.7 3 6 C2.14341797 6.10828125 2.14341797 6.10828125 1.26953125 6.21875 C-5.83666412 7.03217777 -12.85302234 7.10081943 -20 7 C-20 6.67 -20 6.34 -20 6 C-19.29875 5.97421875 -18.5975 5.9484375 -17.875 5.921875 C-11.42226306 5.53611355 -4.84348827 4.84348827 0 0 Z " fill="#79CFCA" transform="translate(78,105)"/>
<path d="M0 0 C0 3.57575896 -1.08840607 5.05295935 -3 8 C-2.34 8 -1.68 8 -1 8 C-1 9.65 -1 11.3 -1 13 C-1.99 13.495 -1.99 13.495 -3 14 C-3 12.68 -3 11.36 -3 10 C-4.65 11.32 -6.3 12.64 -8 14 C-8 12.66666667 -8 11.33333333 -8 10 C-10.31 10 -12.62 10 -15 10 C-11.8155783 7.8770522 -8.53230273 6.11134095 -5.15625 4.31640625 C-3.09928081 3.06061166 -1.61465905 1.77508991 0 0 Z " fill="#071F1E" transform="translate(90,41)"/>
<path d="M0 0 C0.625 2.8125 0.625 2.8125 1 6 C-1 9 -1 9 -4 10 C-9.03943886 10.40579751 -13.41808226 10.36486077 -18 8 C-14.91223433 7.04342567 -12.62229007 7.02578422 -9.4375 7.5 C-6.31722466 7.96304255 -5.08374717 8.02791572 -2 7 C-1.67 5.02 -1.34 3.04 -1 1 C-3.64 1 -6.28 1 -9 1 C-9 0.67 -9 0.34 -9 0 C-5.62182575 -0.84454356 -3.32534757 -1.10844919 0 0 Z " fill="#0B3231" transform="translate(117,117)"/>
<path d="M0 0 C2.97851562 0.390625 2.97851562 0.390625 5.95703125 0.78125 C8.15471706 1.053233 8.15471706 1.053233 11 1 C11 1.33 11 1.66 11 2 C13.01822917 2.16276042 15.03645833 2.32552083 17.0546875 2.48828125 C19 3 19 3 21 6 C21.125 8.6875 21.125 8.6875 21 11 C20 9 19 7 18 5 C17.20335938 5.04640625 16.40671875 5.0928125 15.5859375 5.140625 C4.91362764 5.50415867 4.91362764 5.50415867 0 1 C0 0.67 0 0.34 0 0 Z " fill="#74D5CB" transform="translate(98,112)"/>
<path d="M0 0 C-2.6687682 2.4367014 -5.0865896 3.36776697 -8.5 4.3125 C-11.96286171 5.4099258 -12.9251194 5.91551933 -15.4375 8.75 C-17.09028008 12.18778256 -18.11205348 15.30022284 -19 19 C-19.33 19 -19.66 19 -20 19 C-20.49355466 14.31123073 -20.65365435 11.1670587 -17.75 7.3125 C-14.10311573 3.49905131 -5.17450668 -2.58725334 0 0 Z " fill="#031A19" transform="translate(74,52)"/>
<path d="M0 0 C0.66 0.66 1.32 1.32 2 2 C1.01 3.485 1.01 3.485 0 5 C-0.5 7.5 -0.5 7.5 0 10 C1.9004467 11.84315671 1.9004467 11.84315671 4 13 C3.67 14.65 3.34 16.3 3 18 C0.36 18 -2.28 18 -5 18 C-5 17.34 -5 16.68 -5 16 C-3.02 16 -1.04 16 1 16 C1.33 15.34 1.66 14.68 2 14 C0.35 14 -1.3 14 -3 14 C-2.88512252 12.41590006 -2.75765492 10.83271037 -2.625 9.25 C-2.55539063 8.36828125 -2.48578125 7.4865625 -2.4140625 6.578125 C-2.00149945 4.00933618 -1.28839043 2.24158985 0 0 Z " fill="#082121" transform="translate(66,60)"/>
<path d="M0 0 C3.66639438 4.0155748 6.05472007 9.66815587 5.96484375 15.140625 C5.6875 17.0625 5.6875 17.0625 5 20 C3.09234178 17.13851267 2.5716491 15.64699621 1.9375 12.375 C1.52905984 9.40230348 1.52905984 9.40230348 0 7 C-0.04092937 4.66702567 -0.04241723 2.33294775 0 0 Z " fill="#9AE6E2" transform="translate(144,44)"/>
<path d="M0 0 C6.10819022 3.05409511 10.3536679 7.02782124 15 12 C14.01 12.33 13.02 12.66 12 13 C10.28724465 11.72641268 8.62332967 10.38576923 7 9 C5.68861096 8.29114106 4.36222983 7.60543548 3 7 C3.33 6.01 3.66 5.02 4 4 C2.68 3.67 1.36 3.34 0 3 C0 2.01 0 1.02 0 0 Z " fill="#93E3DB" transform="translate(119,16)"/>
<path d="M0 0 C5.94 0.99 5.94 0.99 12 2 C11.67 2.66 11.34 3.32 11 4 C11.99 4.66 12.98 5.32 14 6 C10.01508155 7.32830615 8.59951452 6.23204404 4.8125 4.5625 C3.72582031 4.08941406 2.63914063 3.61632812 1.51953125 3.12890625 C0.68808594 2.75636719 -0.14335938 2.38382813 -1 2 C-0.67 1.34 -0.34 0.68 0 0 Z " fill="#8DE2DB" transform="translate(43,143)"/>
<path d="M0 0 C0.99 0.33 1.98 0.66 3 1 C-0.91851404 6.28405681 -4.75126417 9.73412957 -11 12 C-11.66 12 -12.32 12 -13 12 C-12.67 11.01 -12.34 10.02 -12 9 C-9.4375 7.8125 -9.4375 7.8125 -7 7 C-7 6.34 -7 5.68 -7 5 C-5.824375 4.87625 -5.824375 4.87625 -4.625 4.75 C-1.85250896 4.27193661 -1.85250896 4.27193661 -0.6875 1.9375 C-0.460625 1.298125 -0.23375 0.65875 0 0 Z " fill="#77D1C8" transform="translate(89,38)"/>
<path d="M0 0 C0.99 0 1.98 0 3 0 C3 1.65 3 3.3 3 5 C3.99 5.33 4.98 5.66 6 6 C6.33 8.97 6.66 11.94 7 15 C4.30474522 12.30474522 3.27393138 10.85961238 1.8125 7.5 C1.46832031 6.7265625 1.12414062 5.953125 0.76953125 5.15625 C0 3 0 3 0 0 Z " fill="#9DE7DD" transform="translate(6,101)"/>
<path d="M0 0 C0.99 0 1.98 0 3 0 C3.391875 0.886875 3.78375 1.77375 4.1875 2.6875 C6.68612966 7.2539611 9.69221622 10.12814414 14 13 C13.67 13.99 13.34 14.98 13 16 C9.14370087 13.15673917 6.45445477 10.21541737 3.6875 6.3125 C2.64142578 4.85263672 2.64142578 4.85263672 1.57421875 3.36328125 C0 1 0 1 0 0 Z " fill="#99E3DF" transform="translate(13,117)"/>
<path d="M0 0 C0.66 0 1.32 0 2 0 C0.79618552 2.49361571 -0.45428722 4.68143083 -2 7 C-2.39013716 8.9896995 -2.73202649 10.99019869 -3 13 C-2.34 13.33 -1.68 13.66 -1 14 C-1.33 14.99 -1.66 15.98 -2 17 C-4.68456699 13.19686343 -5.76026048 10.65659544 -5 6 C-3.53763383 3.62230094 -2.00529213 2.00529213 0 0 Z " fill="#0A2928" transform="translate(55,91)"/>
<path d="M0 0 C4.12172083 3.76843047 7.63068221 7.88904305 10 13 C9.67 13.66 9.34 14.32 9 15 C7.68 14.34 6.36 13.68 5 13 C5 11.68 5 10.36 5 9 C4.175 8.175 3.35 7.35 2.5 6.5 C1.675 5.675 0.85 4.85 0 4 C0 2.68 0 1.36 0 0 Z " fill="#9EE4DC" transform="translate(134,29)"/>
<path d="M0 0 C2.95409701 1.37154504 5.44008376 2.98863724 8 5 C6 6 6 6 3 6 C2.67 6.66 2.34 7.32 2 8 C0.35 6.68 -1.3 5.36 -3 4 C-2.67 3.34 -2.34 2.68 -2 2 C-1.34 2.33 -0.68 2.66 0 3 C0 2.01 0 1.02 0 0 Z " fill="#6FDCD2" transform="translate(91,120)"/>
<path d="M0 0 C1.18414294 3.55242882 0.69535532 4.69830562 -0.4375 8.1875 C-0.72496094 9.08855469 -1.01242188 9.98960938 -1.30859375 10.91796875 C-1.53675781 11.60503906 -1.76492187 12.29210938 -2 13 C-2.33 13 -2.66 13 -3 13 C-3 10.69 -3 8.38 -3 6 C-4.98 6.33 -6.96 6.66 -9 7 C-8.1646875 6.38125 -8.1646875 6.38125 -7.3125 5.75 C-4.83804044 3.87743601 -2.4164771 1.94660656 0 0 Z " fill="#7BC6BD" transform="translate(87,50)"/>
<path d="M0 0 C0.33 0.66 0.66 1.32 1 2 C0.67 2.99 0.34 3.98 0 5 C-0.99 5 -1.98 5 -3 5 C-3.33 5.99 -3.66 6.98 -4 8 C-5.62652316 9.70586575 -7.29006566 11.3777546 -9 13 C-9.99 12.67 -10.98 12.34 -12 12 C-8.32167983 7.47384007 -4.58913637 3.60575001 0 0 Z " fill="#9CDFD9" transform="translate(31,19)"/>
<path d="M0 0 C0.66 0 1.32 0 2 0 C1.39644592 3.85025879 0.23227397 6.86101159 -1.5625 10.3125 C-2.01753906 11.19550781 -2.47257813 12.07851562 -2.94140625 12.98828125 C-3.29074219 13.65214844 -3.64007813 14.31601563 -4 15 C-4.33 15 -4.66 15 -5 15 C-5 13.02 -5 11.04 -5 9 C-4.34 9 -3.68 9 -3 9 C-2.67 7.35 -2.34 5.7 -2 4 C-1.34 4 -0.68 4 0 4 C0 2.68 0 1.36 0 0 Z " fill="#9FE4DE" transform="translate(146,102)"/>
<path d="M0 0 C1.51553092 3.97450493 0.49888623 7.20481149 -0.4375 11.25 C-0.72496094 12.51328125 -1.01242188 13.7765625 -1.30859375 15.078125 C-1.53675781 16.04234375 -1.76492187 17.0065625 -2 18 C-2.99 17.34 -3.98 16.68 -5 16 C-3.41078475 10.63904723 -1.81027062 5.29156027 0 0 Z " fill="#76C9BE" transform="translate(90,83)"/>
<path d="M0 0 C0.99 0.33 1.98 0.66 3 1 C2.34 1.86625 1.68 2.7325 1 3.625 C-1.15333846 7.25875865 -1.45802141 8.87780729 -1 13 C-0.67 13.99 -0.34 14.98 0 16 C-0.66 16 -1.32 16 -2 16 C-3.79392044 12.18791906 -4.45791808 9.21284637 -4 5 C-2.5625 3.25 -2.5625 3.25 -1 2 C-0.67 1.34 -0.34 0.68 0 0 Z " fill="#75D4CB" transform="translate(52,90)"/>
<path d="M0 0 C0.66 0 1.32 0 2 0 C0.0827282 7.50931455 -2.24049015 14.75803759 -5 22 C-5.66 21.67 -6.32 21.34 -7 21 C-6.72414063 20.34644531 -6.44828125 19.69289063 -6.1640625 19.01953125 C-4.72643933 15.29039464 -3.54896624 11.50630296 -2.375 7.6875 C-2.14554687 6.94693359 -1.91609375 6.20636719 -1.6796875 5.44335938 C-1.11796701 3.6294703 -0.55873176 1.81481192 0 0 Z " fill="#082323" transform="translate(92,72)"/>
<path d="M0 0 C0.61875 0.63228516 0.61875 0.63228516 1.25 1.27734375 C5.79817661 5.59202022 8.73902584 6.7803167 15 7 C15.33 6.34 15.66 5.68 16 5 C16 5.99 16 6.98 16 8 C10.3067505 9.18609365 6.57432514 8.66251802 1 7 C0.67 4.69 0.34 2.38 0 0 Z " fill="#6DC5BD" transform="translate(54,71)"/>
<path d="M0 0 C0.66 0 1.32 0 2 0 C1.34 5.28 0.68 10.56 0 16 C-0.33 16 -0.66 16 -1 16 C-2.1732849 11.45352102 -2.54128467 6.66972706 -2 2 C-1.34 1.34 -0.68 0.68 0 0 Z " fill="#74D7CC" transform="translate(54,58)"/>
<path d="M0 0 C0.66 0.66 1.32 1.32 2 2 C0.9375 3.9375 0.9375 3.9375 -1 6 C-4.6875 6.75 -4.6875 6.75 -8 7 C-8 6.01 -8 5.02 -8 4 C-5.36 2.68 -2.72 1.36 0 0 Z " fill="#010405" transform="translate(82,49)"/>
<path d="M0 0 C-6.54216759 3.94998798 -11.42228293 4.50146657 -19 4 C-19 3.67 -19 3.34 -19 3 C-18.14728516 2.94392578 -18.14728516 2.94392578 -17.27734375 2.88671875 C-13.24902631 2.54374014 -9.80871303 2.10247999 -6.125 0.375 C-3 -1 -3 -1 0 0 Z " fill="#0D2E2D" transform="translate(77,107)"/>
<path d="M0 0 C0.66 0.33 1.32 0.66 2 1 C1.2884375 1.928125 1.2884375 1.928125 0.5625 2.875 C-1.02417441 4.90705546 -1.02417441 4.90705546 -2 7 C-2.99 6.67 -3.98 6.34 -5 6 C-5 6.99 -5 7.98 -5 9 C-6.32 9.33 -7.64 9.66 -9 10 C-9 9.01 -9 8.02 -9 7 C-8.01 7 -7.02 7 -6 7 C-5.7525 6.401875 -5.505 5.80375 -5.25 5.1875 C-3.83629988 2.71352479 -2.34944617 1.56629745 0 0 Z " fill="#6CE2D5" transform="translate(28,25)"/>
<path d="M0 0 C0.33 1.32 0.66 2.64 1 4 C-3.33664919 7.11696661 -6.80408388 7.55966813 -12 8 C-12.66 6.68 -13.32 5.36 -14 4 C-13.40832031 4.13019531 -12.81664062 4.26039062 -12.20703125 4.39453125 C-9.72780728 4.82728323 -7.51740673 5.11787189 -5 5 C-1.91201326 2.74942433 -1.91201326 2.74942433 0 0 Z " fill="#021614" transform="translate(73,98)"/>
<path d="M0 0 C3.63 0 7.26 0 11 0 C11.33 0.66 11.66 1.32 12 2 C11.31292969 2.06058594 10.62585938 2.12117188 9.91796875 2.18359375 C8.56638672 2.30927734 8.56638672 2.30927734 7.1875 2.4375 C6.29417969 2.51871094 5.40085937 2.59992188 4.48046875 2.68359375 C1.87256441 2.93489767 1.87256441 2.93489767 -1 4 C-0.67 2.68 -0.34 1.36 0 0 Z " fill="#77D5CA" transform="translate(57,87)"/>
<path d="M0 0 C0.33 0 0.66 0 1 0 C1.29162929 4.95769796 1.12940055 8.02806853 -2 12 C-2.66 12 -3.32 12 -4 12 C-3.33501617 7.61110675 -1.81242323 4.0188515 0 0 Z " fill="#ABE6E1" transform="translate(10,44)"/>
<path d="M0 0 C1.258125 -0.04125 2.51625 -0.0825 3.8125 -0.125 C4.52019531 -0.14820312 5.22789063 -0.17140625 5.95703125 -0.1953125 C8 0 8 0 11 2 C9.25 5.875 9.25 5.875 7 7 C7.33 5.35 7.66 3.7 8 2 C5.36 1.67 2.72 1.34 0 1 C0 0.67 0 0.34 0 0 Z " fill="#7CC7C3" transform="translate(62,96)"/>
<path d="M0 0 C0.33 1.32 0.66 2.64 1 4 C2.32 4 3.64 4 5 4 C5 4.66 5 5.32 5 6 C5.66 6.33 6.32 6.66 7 7 C4.69 6.67 2.38 6.34 0 6 C-0.38218767 4.34385343 -0.71395102 2.67542976 -1 1 C-0.67 0.67 -0.34 0.34 0 0 Z " fill="#6BB5B1" transform="translate(61,97)"/>
<path d="M0 0 C-3.01447835 2.57075841 -5.35979771 3.52207066 -9.25 4.1875 C-10.58804688 4.42533203 -10.58804688 4.42533203 -11.953125 4.66796875 C-12.96632812 4.83232422 -12.96632812 4.83232422 -14 5 C-11.38991565 2.91661429 -9.00472567 1.41620956 -5.875 0.25 C-5.19179687 -0.01296875 -4.50859375 -0.2759375 -3.8046875 -0.546875 C-2 -1 -2 -1 0 0 Z " fill="#0D2C29" transform="translate(74,52)"/>
<path d="M0 0 C0.66 0.33 1.32 0.66 2 1 C0.1875 3 0.1875 3 -2 5 C-2.99 5 -3.98 5 -5 5 C-5.33 5.99 -5.66 6.98 -6 8 C-6.99 7.34 -7.98 6.68 -9 6 C-6.03 4.02 -3.06 2.04 0 0 Z " fill="#A1E5DE" transform="translate(41,12)"/>
<path d="M0 0 C4.10839064 1.45002023 7.50344613 3.3979134 11 6 C11 6.66 11 7.32 11 8 C6.99698968 6.23867546 3.3971023 3.73867517 0 1 C0 0.67 0 0.34 0 0 Z " fill="#9EE2DD" transform="translate(26,133)"/>
<path d="M0 0 C1.14926266 0.95421808 2.29430541 1.91352045 3.4375 2.875 C4.07558594 3.40867187 4.71367187 3.94234375 5.37109375 4.4921875 C7 6 7 6 8 8 C5.6875 7.8125 5.6875 7.8125 3 7 C0 2.96551724 0 2.96551724 0 0 Z " fill="#A4E7E1" transform="translate(126,21)"/>
<path d="M0 0 C0.66 0.33 1.32 0.66 2 1 C2 1.66 2 2.32 2 3 C-0.90600261 4.25664978 -2.79604584 5 -6 5 C-6 4.34 -6 3.68 -6 3 C-4.03533587 1.93224776 -2.03144641 0.93446535 0 0 Z " fill="#82DED6" transform="translate(118,137)"/>
<path d="M0 0 C1.31625194 2.63250388 0.74813658 3.80179056 0.0625 6.625 C-0.13214844 7.44226562 -0.32679687 8.25953125 -0.52734375 9.1015625 C-0.68332031 9.72804688 -0.83929688 10.35453125 -1 11 C-1.99 11 -2.98 11 -4 11 C-3.5247412 9.35303396 -3.04468109 7.70745272 -2.5625 6.0625 C-2.29566406 5.14597656 -2.02882813 4.22945312 -1.75390625 3.28515625 C-1 1 -1 1 0 0 Z " fill="#6FCAC0" transform="translate(103,42)"/>
<path d="M0 0 C2.00720923 0.28674418 4.0085944 0.61866701 6 1 C6 1.99 6 2.98 6 4 C3.03824877 3.38722388 1.61941217 2.74627478 -1 1 C-0.67 0.67 -0.34 0.34 0 0 Z M6 0 C8 1 8 1 8 1 Z " fill="#6FDFD5" transform="translate(54,146)"/>
<path d="M0 0 C2.60334924 2.71182212 2.99456691 3.89133813 3.1875 7.75 C3.0946875 9.35875 3.0946875 9.35875 3 11 C0.39665076 8.28817788 0.00543309 7.10866187 -0.1875 3.25 C-0.125625 2.1775 -0.06375 1.105 0 0 Z " fill="#A2E2DD" transform="translate(144,44)"/>
<path d="M0 0 C0.598125 0.20625 1.19625 0.4125 1.8125 0.625 C1.4825 1.945 1.1525 3.265 0.8125 4.625 C-1.1675 3.635 -3.1475 2.645 -5.1875 1.625 C-2.1875 -0.375 -2.1875 -0.375 0 0 Z " fill="#71DED5" transform="translate(142.1875,43.375)"/>
<path d="M0 0 C0.66 0.33 1.32 0.66 2 1 C1.375 2.875 1.375 2.875 0 5 C-3.125 6.25 -3.125 6.25 -6 7 C-5.67 6.01 -5.34 5.02 -5 4 C-2.4375 2.8125 -2.4375 2.8125 0 2 C0 1.34 0 0.68 0 0 Z " fill="#71D9CD" transform="translate(82,43)"/>
<path d="M0 0 C0.93423645 3.01031744 1.04449911 3.86650268 0 7 C-1.32 7 -2.64 7 -4 7 C-2.92598892 4.08482708 -2.22189824 2.22189824 0 0 Z " fill="#A2E4DD" transform="translate(18,32)"/>
<path d="M0 0 C2.64 0 5.28 0 8 0 C7.67 1.32 7.34 2.64 7 4 C4.69 3.34 2.38 2.68 0 2 C0 1.34 0 0.68 0 0 Z " fill="#7AC0BA" transform="translate(69,88)"/>
<path d="M0 0 C-1 3 -1 3 -2.84765625 3.94921875 C-3.57855469 4.19285156 -4.30945313 4.43648437 -5.0625 4.6875 C-6.16271484 5.06455078 -6.16271484 5.06455078 -7.28515625 5.44921875 C-7.85105469 5.63097656 -8.41695313 5.81273437 -9 6 C-8 3 -8 3 -5.0625 1.3125 C-2 0 -2 0 0 0 Z " fill="#7AD0CA" transform="translate(78,57)"/>
<path d="M0 0 C0.7425 0.0825 1.485 0.165 2.25 0.25 C1.26 1.735 1.26 1.735 0.25 3.25 C-3.375 3.9375 -3.375 3.9375 -6.75 4.25 C-3.42692308 0.31153846 -3.42692308 0.31153846 0 0 Z " fill="#97E5DF" transform="translate(65.75,3.75)"/>
<path d="M0 0 C2 3 2 3 3 6 C0.08482708 4.92598892 -1.77810176 4.22189824 -4 2 C-2.68 1.34 -1.36 0.68 0 0 Z " fill="#72E2D8" transform="translate(30,130)"/>
<path d="M0 0 C4.875 4.75 4.875 4.75 6 7 C5.34 7 4.68 7 4 7 C3.67 7.66 3.34 8.32 3 9 C2.01 6.03 1.02 3.06 0 0 Z " fill="#081A1E" transform="translate(86,100)"/>
<path d="M0 0 C2.72426311 2.35277269 3.8141763 4.62496331 5 8 C3.35 7.67 1.7 7.34 0 7 C0 4.69 0 2.38 0 0 Z " fill="#A8E8E2" transform="translate(139,36)"/>
</svg>
